<?xml version="1.0" encoding="UTF-8" standalone="no"?>
<!-- Created with Inkscape (http://www.inkscape.org/) -->

<svg
   xmlns:dc="http://purl.org/dc/elements/1.1/"
   xmlns:cc="http://creativecommons.org/ns#"
   xmlns:rdf="http://www.w3.org/1999/02/22-rdf-syntax-ns#"
   xmlns:svg="http://www.w3.org/2000/svg"
   xmlns="http://www.w3.org/2000/svg"
   xmlns:xlink="http://www.w3.org/1999/xlink"
   xmlns:sodipodi="http://sodipodi.sourceforge.net/DTD/sodipodi-0.dtd"
   xmlns:inkscape="http://www.inkscape.org/namespaces/inkscape"
   width="95.951202mm"
   height="220.71851mm"
   viewBox="0 0 95.951202 220.71851"
   version="1.1"
   id="svg6908"
   inkscape:version="0.92.2 (5c3e80d, 2017-08-06)"
   sodipodi:docname="boiler.svg">
  <defs
     id="defs6902">
    <linearGradient
       id="SVGID_54_"
       gradientUnits="userSpaceOnUse"
       x1="0.0009765625"
       y1="150.7002"
       x2="1.0005"
       y2="150.7002"
       gradientTransform="matrix(0,-1.2523,1.9808,0,-256.7686,38.5742)">
      <stop
         offset="0"
         style="stop-color:#858585"
         id="stop1185" />
      <stop
         offset="0.42"
         style="stop-color:#E0E0E0"
         id="stop1187" />
      <stop
         offset="0.68"
         style="stop-color:#E6E6E6"
         id="stop1189" />
      <stop
         offset="1"
         style="stop-color:#D4D4D4"
         id="stop1191" />
    </linearGradient>
    <clipPath
       id="SVGID_53_">
      <use
         height="100%"
         width="100%"
         y="0"
         x="0"
         style="overflow:visible"
         xlink:href="#SVGID_52_"
         overflow="visible"
         id="use1182" />
    </clipPath>
    <linearGradient
       id="SVGID_45_"
       gradientUnits="userSpaceOnUse"
       x1="0"
       y1="150.7002"
       x2="0.99949998"
       y2="150.7002"
       gradientTransform="matrix(0,-1.2319,1.9848,0,-241.2653,43.9961)">
      <stop
         offset="0"
         style="stop-color:#A8A6A6"
         id="stop1108" />
      <stop
         offset="0.42"
         style="stop-color:#E0E0E0"
         id="stop1110" />
      <stop
         offset="0.68"
         style="stop-color:#F5F5F5"
         id="stop1112" />
      <stop
         offset="1"
         style="stop-color:#D4D4D4"
         id="stop1114" />
    </linearGradient>
    <clipPath
       id="SVGID_44_">
      <use
         height="100%"
         width="100%"
         y="0"
         x="0"
         style="overflow:visible"
         xlink:href="#SVGID_43_"
         overflow="visible"
         id="use1105" />
    </clipPath>
    <linearGradient
       id="SVGID_42_"
       gradientUnits="userSpaceOnUse"
       x1="0.00048828131"
       y1="150.7002"
       x2="1.0005"
       y2="150.7002"
       gradientTransform="matrix(0,-1.2319,1.9848,0,-241.2653,54.3379)">
      <stop
         offset="0"
         style="stop-color:#A8A6A6"
         id="stop1087" />
      <stop
         offset="0.42"
         style="stop-color:#E0E0E0"
         id="stop1089" />
      <stop
         offset="0.68"
         style="stop-color:#F5F5F5"
         id="stop1091" />
      <stop
         offset="1"
         style="stop-color:#D4D4D4"
         id="stop1093" />
    </linearGradient>
    <clipPath
       id="SVGID_41_">
      <use
         height="100%"
         width="100%"
         y="0"
         x="0"
         style="overflow:visible"
         xlink:href="#SVGID_40_"
         overflow="visible"
         id="use1084" />
    </clipPath>
    <linearGradient
       id="SVGID_39_"
       gradientUnits="userSpaceOnUse"
       x1="-0.00048828131"
       y1="150.7002"
       x2="0.99900001"
       y2="150.7002"
       gradientTransform="matrix(-11.5427,0,0,-1.3601,55.6406,249.5036)">
      <stop
         offset="0"
         style="stop-color:#FD0100"
         id="stop1072" />
      <stop
         offset="1"
         style="stop-color:#D0080A"
         id="stop1074" />
    </linearGradient>
    <clipPath
       id="SVGID_38_">
      <use
         height="100%"
         width="100%"
         y="0"
         x="0"
         style="overflow:visible"
         xlink:href="#SVGID_37_"
         overflow="visible"
         id="use1069" />
    </clipPath>
    <linearGradient
       id="SVGID_36_"
       gradientUnits="userSpaceOnUse"
       x1="0"
       y1="150.70509"
       x2="1"
       y2="150.70509"
       gradientTransform="matrix(-15.0905,0,0,-1.4627,59.1875,273.7024)">
      <stop
         offset="0"
         style="stop-color:#25396D"
         id="stop1057" />
      <stop
         offset="1"
         style="stop-color:#043B8B"
         id="stop1059" />
    </linearGradient>
    <clipPath
       id="SVGID_35_">
      <use
         height="100%"
         width="100%"
         y="0"
         x="0"
         style="overflow:visible"
         xlink:href="#SVGID_34_"
         overflow="visible"
         id="use1054" />
    </clipPath>
    <linearGradient
       id="SVGID_33_"
       gradientUnits="userSpaceOnUse"
       x1="-0.00048828131"
       y1="150.7002"
       x2="0.99900001"
       y2="150.7002"
       gradientTransform="matrix(-11.5427,0,0,-1.3595,55.6406,255.208)">
      <stop
         offset="0"
         style="stop-color:#285CAF"
         id="stop1040" />
      <stop
         offset="1"
         style="stop-color:#774F7D"
         id="stop1042" />
    </linearGradient>
    <clipPath
       id="SVGID_32_">
      <use
         height="100%"
         width="100%"
         y="0"
         x="0"
         style="overflow:visible"
         xlink:href="#SVGID_31_"
         overflow="visible"
         id="use1037" />
    </clipPath>
    <linearGradient
       id="SVGID_30_"
       gradientUnits="userSpaceOnUse"
       x1="-0.00048828131"
       y1="150.7002"
       x2="0.99900001"
       y2="150.7002"
       gradientTransform="matrix(-11.5427,0,0,-1.3601,55.6406,253.8435)">
      <stop
         offset="0"
         style="stop-color:#735080"
         id="stop1025" />
      <stop
         offset="1"
         style="stop-color:#A55161"
         id="stop1027" />
    </linearGradient>
    <clipPath
       id="SVGID_29_">
      <use
         height="100%"
         width="100%"
         y="0"
         x="0"
         style="overflow:visible"
         xlink:href="#SVGID_28_"
         overflow="visible"
         id="use1022" />
    </clipPath>
    <linearGradient
       id="SVGID_27_"
       gradientUnits="userSpaceOnUse"
       x1="-0.00048828131"
       y1="150.7002"
       x2="0.99900001"
       y2="150.7002"
       gradientTransform="matrix(-11.5427,0,0,-1.3595,55.6406,252.3096)">
      <stop
         offset="0"
         style="stop-color:#A55161"
         id="stop1010" />
      <stop
         offset="1"
         style="stop-color:#E00000"
         id="stop1012" />
    </linearGradient>
    <clipPath
       id="SVGID_26_">
      <use
         height="100%"
         width="100%"
         y="0"
         x="0"
         style="overflow:visible"
         xlink:href="#SVGID_25_"
         overflow="visible"
         id="use1007" />
    </clipPath>
    <linearGradient
       id="SVGID_24_"
       gradientUnits="userSpaceOnUse"
       x1="-0.00048828131"
       y1="150.7002"
       x2="0.99949998"
       y2="150.7002"
       gradientTransform="matrix(-11.5421,0,0,-1.3601,55.6406,250.945)">
      <stop
         offset="0"
         style="stop-color:#E00000"
         id="stop995" />
      <stop
         offset="1"
         style="stop-color:#FD0100"
         id="stop997" />
    </linearGradient>
    <clipPath
       id="SVGID_23_">
      <use
         height="100%"
         width="100%"
         y="0"
         x="0"
         style="overflow:visible"
         xlink:href="#SVGID_22_"
         overflow="visible"
         id="use992" />
    </clipPath>
    <linearGradient
       id="SVGID_21_"
       gradientUnits="userSpaceOnUse"
       x1="-0.00048828131"
       y1="150.7002"
       x2="0.99900001"
       y2="150.7002"
       gradientTransform="matrix(-11.5427,0,0,-1.3601,55.6406,256.7458)">
      <stop
         offset="0"
         style="stop-color:#043B8B"
         id="stop980" />
      <stop
         offset="1"
         style="stop-color:#285CAF"
         id="stop982" />
    </linearGradient>
    <clipPath
       id="SVGID_20_">
      <use
         height="100%"
         width="100%"
         y="0"
         x="0"
         style="overflow:visible"
         xlink:href="#SVGID_19_"
         overflow="visible"
         id="use977" />
    </clipPath>
    <linearGradient
       id="SVGID_18_"
       gradientUnits="userSpaceOnUse"
       x1="-0.00048828131"
       y1="150.7002"
       x2="0.99900001"
       y2="150.7002"
       gradientTransform="matrix(0,-1.262,1.9803,0,-256.6824,56.583)">
      <stop
         offset="0"
         style="stop-color:#858585"
         id="stop945" />
      <stop
         offset="0.42"
         style="stop-color:#E0E0E0"
         id="stop947" />
      <stop
         offset="0.68"
         style="stop-color:#E6E6E6"
         id="stop949" />
      <stop
         offset="1"
         style="stop-color:#D4D4D4"
         id="stop951" />
    </linearGradient>
    <clipPath
       id="SVGID_17_">
      <use
         height="100%"
         width="100%"
         y="0"
         x="0"
         style="overflow:visible"
         xlink:href="#SVGID_16_"
         overflow="visible"
         id="use942" />
    </clipPath>
    <linearGradient
       id="SVGID_6_"
       gradientUnits="userSpaceOnUse"
       x1="0"
       y1="150.73241"
       x2="1"
       y2="150.73241"
       gradientTransform="matrix(34.7335,0,0,38.8715,32.4375,-5817.3652)">
      <stop
         offset="0"
         style="stop-color:#C4C4C4"
         id="stop31" />
      <stop
         offset="0.58"
         style="stop-color:#FEFEFE"
         id="stop33" />
      <stop
         offset="1"
         style="stop-color:#C4C4C4"
         id="stop35" />
    </linearGradient>
    <clipPath
       id="SVGID_5_">
      <use
         height="100%"
         width="100%"
         y="0"
         x="0"
         style="overflow:visible"
         xlink:href="#SVGID_4_"
         overflow="visible"
         id="use28" />
    </clipPath>
    <linearGradient
       id="SVGID_3_"
       gradientUnits="userSpaceOnUse"
       x1="0.00048828131"
       y1="150.69431"
       x2="1.0005"
       y2="150.69431"
       gradientTransform="matrix(18.0913,0,0,40.0513,40.7656,-5993.6865)">
      <stop
         offset="0"
         style="stop-color:#BDBDBD"
         id="stop10" />
      <stop
         offset="0.27"
         style="stop-color:#E4E4E4"
         id="stop12" />
      <stop
         offset="0.72"
         style="stop-color:#F4F4F4"
         id="stop14" />
      <stop
         offset="1"
         style="stop-color:#D6D6D6"
         id="stop16" />
    </linearGradient>
    <clipPath
       id="SVGID_2_">
      <use
         height="100%"
         width="100%"
         y="0"
         x="0"
         style="overflow:visible"
         xlink:href="#SVGID_1_"
         overflow="visible"
         id="use7" />
    </clipPath>
    <polygon
       id="SVGID_1_"
       points="58.86,59.819 58.86,61.64 40.769,61.64 40.769,59.819 40.769,24.274 40.769,22.021 58.86,22.021 58.86,24.274 " />
    <polygon
       id="SVGID_4_"
       points="56.974,60.011 42.655,60.011 42.655,57.536 42.655,23.649 56.974,23.649 56.974,57.536 " />
    <rect
       id="SVGID_16_"
       x="40.756001"
       y="55.321999"
       width="1.98"
       height="1.262" />
    <path
       inkscape:connector-curvature="0"
       id="SVGID_19_"
       d="m 44.505,51.104 10.731,0.715 c 0.222,0.015 0.405,0.145 0.405,0.321 0,0.176 -0.184,0.336 -0.405,0.321 L 44.505,51.746 C 44.284,51.731 44.1,51.601 44.1,51.425 c 0,-0.176 0.183,-0.335 0.405,-0.321" />
    <path
       inkscape:connector-curvature="0"
       id="SVGID_22_"
       d="m 44.505,45.306 10.731,0.715 c 0.222,0.015 0.405,0.145 0.405,0.321 0,0.176 -0.184,0.336 -0.405,0.321 L 44.505,45.948 C 44.284,45.933 44.1,45.803 44.1,45.627 c 0,-0.176 0.183,-0.336 0.405,-0.321" />
    <path
       inkscape:connector-curvature="0"
       id="SVGID_25_"
       d="m 44.505,46.754 10.731,0.715 c 0.222,0.015 0.405,0.145 0.405,0.321 0,0.176 -0.184,0.336 -0.405,0.321 L 44.505,47.396 C 44.284,47.381 44.1,47.251 44.1,47.075 c 0,-0.176 0.183,-0.336 0.405,-0.321" />
    <path
       inkscape:connector-curvature="0"
       id="SVGID_28_"
       d="m 44.505,48.203 10.731,0.715 c 0.222,0.015 0.405,0.145 0.405,0.321 0,0.176 -0.184,0.336 -0.405,0.321 L 44.505,48.845 C 44.284,48.83 44.1,48.7 44.1,48.524 c 0,-0.176 0.183,-0.336 0.405,-0.321" />
    <path
       inkscape:connector-curvature="0"
       id="SVGID_31_"
       d="m 44.505,49.652 10.731,0.715 c 0.222,0.015 0.405,0.145 0.405,0.321 0,0.176 -0.184,0.336 -0.405,0.321 L 44.505,50.294 C 44.284,50.279 44.1,50.149 44.1,49.973 c 0,-0.177 0.183,-0.336 0.405,-0.321" />
    <path
       inkscape:connector-curvature="0"
       id="SVGID_34_"
       d="m 44.505,52.546 10.732,0.769 c 0.022,0.002 0.045,0.005 0.067,0.009 h 1.552 v 0.683 h -1.588 -0.002 -0.008 c -0.02,0 -0.04,-10e-4 -0.06,-0.003 L 44.506,53.237 c -0.221,-0.016 -0.405,-0.156 -0.405,-0.346 0,-0.19 0.182,-0.36 0.404,-0.345" />
    <path
       inkscape:connector-curvature="0"
       id="SVGID_37_"
       d="m 44.505,43.864 10.731,0.715 c 0.222,0.015 0.405,0.145 0.405,0.321 0,0.176 -0.184,0.336 -0.405,0.322 L 44.505,44.507 C 44.284,44.492 44.1,44.363 44.1,44.186 c 0,-0.177 0.183,-0.337 0.405,-0.322" />
    <rect
       id="SVGID_40_"
       x="56.855"
       y="53.105"
       width="1.984"
       height="1.2309999" />
    <rect
       id="SVGID_43_"
       x="56.855"
       y="42.764999"
       width="1.984"
       height="1.2309999" />
    <rect
       id="SVGID_52_"
       x="40.756001"
       y="37.321999"
       width="1.98"
       height="1.252" />
  </defs>
  <sodipodi:namedview
     id="base"
     pagecolor="#ffffff"
     bordercolor="#666666"
     borderopacity="1.0"
     inkscape:pageopacity="0.0"
     inkscape:pageshadow="2"
     inkscape:zoom="0.49497475"
     inkscape:cx="457.74424"
     inkscape:cy="170.14531"
     inkscape:document-units="mm"
     inkscape:current-layer="layer1"
     showgrid="false"
     inkscape:window-width="1920"
     inkscape:window-height="1027"
     inkscape:window-x="1912"
     inkscape:window-y="-8"
     inkscape:window-maximized="1" />
  <metadata
     id="metadata6905">
    <rdf:RDF>
      <cc:Work
         rdf:about="">
        <dc:format>image/svg+xml</dc:format>
        <dc:type
           rdf:resource="http://purl.org/dc/dcmitype/StillImage" />
        <dc:title></dc:title>
      </cc:Work>
    </rdf:RDF>
  </metadata>
  <g
     inkscape:label="Layer 1"
     inkscape:groupmode="layer"
     id="layer1">
    <polygon
       transform="matrix(5.2999725,0,0,5.2999725,-216.07303,-111.04412)"
       style="clip-rule:evenodd;fill:#2b2929;fill-rule:evenodd;stroke-width:0.04992164"
       points="40.769,62.442 40.769,61.746 40.769,24.98 40.769,21.219 58.86,21.219 58.86,24.98 58.86,61.746 58.86,62.442 "
       id="polygon2" />
    <g
       transform="matrix(5.2999725,0,0,5.2999725,-216.07303,-111.04412)"
       id="g21"
       style="stroke-width:0.04992164">
      <defs
         id="defs5">
        <polygon
           id="polygon7540"
           points="40.769,61.64 40.769,59.819 40.769,24.274 40.769,22.021 58.86,22.021 58.86,24.274 58.86,59.819 58.86,61.64 " />
      </defs>
      <clipPath
         id="clipPath6999">
        <use
           height="100%"
           width="100%"
           y="0"
           x="0"
           style="overflow:visible"
           xlink:href="#SVGID_1_"
           overflow="visible"
           id="use6997" />
      </clipPath>
      <linearGradient
         id="linearGradient7009"
         gradientUnits="userSpaceOnUse"
         x1="0.00048828131"
         y1="150.69431"
         x2="1.0005"
         y2="150.69431"
         gradientTransform="matrix(18.0913,0,0,40.0513,40.7656,-5993.6865)">
        <stop
           offset="0"
           style="stop-color:#BDBDBD"
           id="stop7001" />
        <stop
           offset="0.27"
           style="stop-color:#E4E4E4"
           id="stop7003" />
        <stop
           offset="0.72"
           style="stop-color:#F4F4F4"
           id="stop7005" />
        <stop
           offset="1"
           style="stop-color:#D6D6D6"
           id="stop7007" />
      </linearGradient>
      <rect
         style="fill:url(#SVGID_3_);stroke-width:0.04992164"
         x="40.769001"
         y="22.021"
         clip-path="url(#SVGID_2_)"
         width="18.091"
         height="39.618999"
         id="rect19" />
    </g>
    <rect
       style="clip-rule:evenodd;fill:#b3b3b3;fill-rule:evenodd;stroke-width:0.26458323"
       x="95.056564"
       y="5.6663795"
       width="0.80559582"
       height="209.9796"
       id="rect23" />
    <g
       transform="matrix(5.2999725,0,0,5.2999725,-216.07303,-111.04412)"
       id="g40"
       style="stroke-width:0.04992164">
      <defs
         id="defs26">
        <polygon
           id="polygon7553"
           points="56.974,23.649 56.974,57.536 56.974,60.011 42.655,60.011 42.655,57.536 42.655,23.649 " />
      </defs>
      <clipPath
         id="clipPath7018">
        <use
           height="100%"
           width="100%"
           y="0"
           x="0"
           style="overflow:visible"
           xlink:href="#SVGID_4_"
           overflow="visible"
           id="use7016" />
      </clipPath>
      <linearGradient
         id="linearGradient7026"
         gradientUnits="userSpaceOnUse"
         x1="0"
         y1="150.73241"
         x2="1"
         y2="150.73241"
         gradientTransform="matrix(34.7335,0,0,38.8715,32.4375,-5817.3652)">
        <stop
           offset="0"
           style="stop-color:#C4C4C4"
           id="stop7020" />
        <stop
           offset="0.58"
           style="stop-color:#FEFEFE"
           id="stop7022" />
        <stop
           offset="1"
           style="stop-color:#C4C4C4"
           id="stop7024" />
      </linearGradient>
      <rect
         style="fill:url(#SVGID_6_);stroke-width:0.04992164"
         x="42.654999"
         y="23.649"
         clip-path="url(#SVGID_5_)"
         width="14.319"
         height="36.362"
         id="rect38" />
    </g>
    <rect
       style="clip-rule:evenodd;fill:#999999;fill-rule:evenodd;stroke-width:0.26458323"
       x="0.0067910166"
       y="5.6663795"
       width="0.82679576"
       height="209.9796"
       id="rect42" />
    <path
       inkscape:connector-curvature="0"
       style="clip-rule:evenodd;fill:#bfbfbf;fill-rule:evenodd;stroke-width:0.26458323"
       d="M 10.51127,14.294807 V 207.01243 H 9.5036905 c 0,-59.05234 -0.0106,-138.143894 -0.02,-192.717623 z"
       id="path44" />
    <path
       inkscape:connector-curvature="0"
       style="clip-rule:evenodd;fill:#d9d9d9;fill-rule:evenodd;stroke-width:0.26458323"
       d="M 85.37339,14.294807 V 207.01243 h 1.00157 c 0,-59.07358 0.0158,-138.159724 0.02,-192.717623 z"
       id="path46" />
    <path
       inkscape:connector-curvature="0"
       style="clip-rule:evenodd;fill:#2b2929;fill-rule:evenodd;stroke-width:0.26458323"
       d="M 0.0016,5.6664849 H 95.88326 V 1.2780079 C 95.88326,0.57891186 95.31037,4.8593751e-6 94.60526,4.8593751e-6 H 1.278 C 0.57891,4.8593751e-6 0,0.57690886 0,1.2780079 Z"
       id="path48" />
    <path
       inkscape:connector-curvature="0"
       style="clip-rule:evenodd;fill:#2b2929;fill-rule:evenodd;stroke-width:0.26458323"
       d="m 0.0016,217.10364 h 95.88166 v 2.8036 c 0,0.4507 -0.36457,0.81127 -0.81527,0.81127 H 0.81328 c -0.4447,0 -0.81128,-0.36057 -0.81128,-0.81127 z"
       id="path50" />
  </g>
</svg>
