<?xml version="1.0" encoding="UTF-8" standalone="no"?>
<!-- Created with Inkscape (http://www.inkscape.org/) -->

<svg
   xmlns:dc="http://purl.org/dc/elements/1.1/"
   xmlns:cc="http://creativecommons.org/ns#"
   xmlns:rdf="http://www.w3.org/1999/02/22-rdf-syntax-ns#"
   xmlns:svg="http://www.w3.org/2000/svg"
   xmlns="http://www.w3.org/2000/svg"
   xmlns:sodipodi="http://sodipodi.sourceforge.net/DTD/sodipodi-0.dtd"
   xmlns:inkscape="http://www.inkscape.org/namespaces/inkscape"
   width="21.118mm"
   height="21.117001mm"
   viewBox="0 0 21.118 21.117001"
   version="1.1"
   id="svg1481"
   inkscape:version="0.92.2 (5c3e80d, 2017-08-06)"
   sodipodi:docname="flow_meter.svg">
  <defs
     id="defs1475" />
  <sodipodi:namedview
     id="base"
     pagecolor="#ffffff"
     bordercolor="#666666"
     borderopacity="1.0"
     inkscape:pageopacity="0.0"
     inkscape:pageshadow="2"
     inkscape:zoom="3.959798"
     inkscape:cx="-9.5090933"
     inkscape:cy="22.923804"
     inkscape:document-units="mm"
     inkscape:current-layer="svg1481"
     showgrid="false"
     inkscape:window-width="1920"
     inkscape:window-height="1027"
     inkscape:window-x="1912"
     inkscape:window-y="-8"
     inkscape:window-maximized="1" />
  <metadata
     id="metadata1478">
    <rdf:RDF>
      <cc:Work
         rdf:about="">
        <dc:format>image/svg+xml</dc:format>
        <dc:type
           rdf:resource="http://purl.org/dc/dcmitype/StillImage" />
        <dc:title />
      </cc:Work>
    </rdf:RDF>
  </metadata>
  <g
     inkscape:label="Layer 1"
     inkscape:groupmode="layer"
     id="layer1">
    <path
       inkscape:connector-curvature="0"
       d="m 20.182634,10.558441 v 0 c 0,5.29323 -4.330416,9.62327 -9.623639,9.62327 v 0 c -5.292853,0 -9.623266,-4.33004 -9.623266,-9.62327 v 0 c 0,-5.2932112 4.330413,-9.62326126 9.623266,-9.62326126 v 0 c 5.293223,0 9.623639,4.33005006 9.623639,9.62326126"
       style="fill:#ffffff;fill-opacity:1;fill-rule:evenodd;stroke:none;stroke-width:1.78004003"
       id="path3137" />
    <path
       inkscape:connector-curvature="0"
       d="m 10.558995,-3.5026017e-4 c 2.913855,0 5.554858,1.18333006017 7.465162,3.09364006017 1.910298,1.91031 3.093636,4.55131 3.093636,7.4651512 0,2.91124 -1.184455,5.55261 -3.095509,7.46292 l 0.0017,0.002 c -1.910298,1.90994 -4.551307,3.09364 -7.465159,3.09364 -2.910115,0 -5.552617,-1.1837 -7.461797,-3.09364 l -0.0011,-0.002 -0.0019,-10e-4 C 1.183705,16.111171 0,13.468671 0,10.558551 0,7.6447098 1.183705,5.0037098 3.094006,3.0933998 l 0.0019,0.002 C 5.006207,1.1843498 7.647589,-1.1026017e-4 10.558825,-1.1026017e-4 Z M 16.901374,4.2164398 c -1.62213,-1.62213 -3.866201,-2.62756 -6.342379,-2.62756 -2.479167,0 -4.722117,1.00431 -6.342005,2.62421 v 0.004 c -1.62213,1.62174 -2.627549,3.86583 -2.627549,6.3420012 0,2.47919 1.00467,4.72213 2.624559,6.34202 l 0.0029,0.002 c 1.619887,1.62024 3.862838,2.62456 6.342005,2.62456 2.47618,0 4.72025,-1.00542 6.342381,-2.62757 h 0.0028 c 1.619886,-1.61989 2.62456,-3.86283 2.62456,-6.34199 0,-2.4761812 -1.005796,-4.7202512 -2.627554,-6.3420112"
       style="fill:#999999;fill-opacity:1;fill-rule:nonzero;stroke:none;stroke-width:1.78004003"
       id="path3141" />
    <path
       inkscape:connector-curvature="0"
       d="m 6.451345,14.953161 c 0.253411,-0.54346 0.432442,-0.95984 0.536347,-1.24912 0.102778,-0.29041 0.199235,-0.62419 0.287049,-1.00243 0.08895,-0.37715 0.154739,-0.73632 0.195841,-1.07644 0.04448,-0.339 0.06464,-0.68845 0.06464,-1.04465 0,-0.7258712 -0.07625,-1.4132212 -0.232855,-2.0605712 -0.155862,-0.6485 -0.440667,-1.43337 -0.859278,-2.35733 h 0.873855 c 0.460103,0.65559 0.818166,1.34966 1.072327,2.08598 0.254156,0.73331 0.382355,1.47897 0.382355,2.2343612 0,0.63911 -0.101674,1.32123 -0.302747,2.05006 -0.227993,0.81707 -0.60624,1.6244 -1.128389,2.42014 z m 8.210069,0 h -0.882453 c -0.466087,-0.70455 -0.821159,-1.43676 -1.06485,-2.19626 -0.243696,-0.75872 -0.366661,-1.49391 -0.366661,-2.20481 0,-0.8805812 0.150642,-1.7144612 0.453749,-2.5004712 0.260513,-0.68434 0.593157,-1.31265 0.995701,-1.889 h 0.879464 c -0.418616,0.92396 -0.705667,1.70883 -0.863392,2.35733 -0.155864,0.64735 -0.234346,1.3347 -0.234346,2.0605712 0,0.49895 0.04561,1.01175 0.138659,1.53614 0.09232,0.52476 0.220518,1.02486 0.382733,1.49506 0.105787,0.31247 0.293401,0.75874 0.561391,1.34144"
       style="fill:#4c4c4c;fill-opacity:1;fill-rule:nonzero;stroke:none;stroke-width:1.78004003"
       id="path3139" />
  </g>
</svg>
