<?xml version="1.0" encoding="UTF-8" standalone="no"?>
<!-- Created with Inkscape (http://www.inkscape.org/) -->

<svg
   xmlns:dc="http://purl.org/dc/elements/1.1/"
   xmlns:cc="http://creativecommons.org/ns#"
   xmlns:rdf="http://www.w3.org/1999/02/22-rdf-syntax-ns#"
   xmlns:svg="http://www.w3.org/2000/svg"
   xmlns="http://www.w3.org/2000/svg"
   xmlns:sodipodi="http://sodipodi.sourceforge.net/DTD/sodipodi-0.dtd"
   xmlns:inkscape="http://www.inkscape.org/namespaces/inkscape"
   width="24.648001mm"
   height="24.648001mm"
   viewBox="0 0 24.648 24.648"
   version="1.1"
   id="svg1083"
   inkscape:version="0.92.2 (5c3e80d, 2017-08-06)"
   sodipodi:docname="pump.svg">
  <defs
     id="defs1077" />
  <sodipodi:namedview
     id="base"
     pagecolor="#ffffff"
     bordercolor="#666666"
     borderopacity="1.0"
     inkscape:pageopacity="0.0"
     inkscape:pageshadow="2"
     inkscape:zoom="3.959798"
     inkscape:cx="38.266722"
     inkscape:cy="51.413021"
     inkscape:document-units="mm"
     inkscape:current-layer="layer1"
     showgrid="false"
     inkscape:window-width="1920"
     inkscape:window-height="1027"
     inkscape:window-x="1912"
     inkscape:window-y="-8"
     inkscape:window-maximized="1" />
  <metadata
     id="metadata1080">
    <rdf:RDF>
      <cc:Work
         rdf:about="">
        <dc:format>image/svg+xml</dc:format>
        <dc:type
           rdf:resource="http://purl.org/dc/dcmitype/StillImage" />
        <dc:title></dc:title>
      </cc:Work>
    </rdf:RDF>
  </metadata>
  <g
     inkscape:label="Layer 1"
     inkscape:groupmode="layer"
     id="layer1"
     transform="translate(0,0.50699709)">
    <circle
       style="opacity:1;fill:#ffffff;fill-opacity:1;stroke-width:0.26458332"
       id="path920"
       cx="12.324"
       cy="11.817003"
       r="11.824" />
    <path
       style="fill:#666666;fill-rule:nonzero;stroke-width:0.00461961"
       inkscape:connector-curvature="0"
       d="m 12.498495,1.4269459 c -0.15197,0 -0.30352,0.00408 -0.454091,0.012967 2.624944,0.1179994 4.994586,1.2536393 6.735559,3.0312048 h 0.003 c 1.840362,1.8776664 2.979513,4.4754991 2.979513,7.3420743 0,2.86389 -1.139151,5.460242 -2.979513,7.339338 l -0.003,0.0031 c -1.740973,1.777566 -4.110615,2.913257 -6.735559,3.031205 0.150701,0.0082 0.302241,0.01297 0.454091,0.01297 2.806243,0 5.347836,-1.163085 7.188249,-3.042181 l 0.004,-0.0031 c 1.839012,-1.879096 2.979513,-4.475448 2.979513,-7.339348 0,-2.8665754 -1.140501,-5.4643979 -2.979513,-7.3420643 h -0.004 c -1.840413,-1.879058 -4.382006,-3.042143 -7.188249,-3.042143 z"
       class="fil33"
       id="_368080376-9-6-4-9-4-2" />
    <path
       style="fill:#999999;fill-rule:nonzero;stroke-width:0.00461961"
       inkscape:connector-curvature="0"
       d="m 12.579095,-0.506999 c 3.331494,0 6.349998,1.3798066 8.53288,3.6086018 l -0.001,0.00306 C 23.296558,5.336228 24.648,8.4181775 24.648,11.815561 c 0,3.398802 -1.351442,6.479363 -3.535715,8.709547 v 0.0031 c -2.182912,2.230184 -5.201416,3.60999 -8.53292,3.60999 -3.3314539,0 -6.3499975,-1.379806 -8.5342301,-3.60999 v -0.0031 C 1.8621722,18.294924 0.50938061,15.214363 0.50938061,11.815561 c 0,-3.4015288 1.35279159,-6.4834375 3.53575429,-8.7136621 2.1842326,-2.22879521 5.2027762,-3.60860181 8.5342301,-3.60860181 z m 6.967918,5.207887 C 17.764381,2.8821651 15.300678,1.7547342 12.579095,1.7547342 c -2.7215932,0 -5.1866961,1.1274309 -6.9679283,2.9461538 -1.7813121,1.820091 -2.8855334,4.3355785 -2.8855334,7.114376 0,2.780218 1.1029113,5.295706 2.8828234,7.115807 l 0.003,-10e-4 c 1.7812322,1.818712 4.2463351,2.946143 6.9679283,2.946143 2.720233,0 5.185286,-1.127431 6.967918,-2.946143 l 0.001,10e-4 c 1.779963,-1.820101 2.882834,-4.335589 2.882834,-7.115807 0,-2.7815645 -1.101561,-5.2970519 -2.881474,-7.114376 h -0.003 z"
       class="fil34"
       id="_368080208-4-4-2-4-8-7" />
    <path
       style="fill:#666666;fill-rule:nonzero;stroke-width:0.00461961"
       inkscape:connector-curvature="0"
       d="m 12.068574,-0.506999 c 0.179911,0 0.360241,0.004084 0.538711,0.012967 -3.1152336,0.14004309 -5.925507,1.48815722 -7.9915895,3.5962372 h -0.004 C 2.4287429,5.33244 1.0760313,8.4143385 1.0760313,11.815867 c 0,3.398803 1.3527116,6.479374 3.5356642,8.709557 l 0.004,0.0031 c 2.0660825,2.109469 4.8763559,3.457716 7.9915895,3.597626 -0.17864,0.0082 -0.35855,0.01297 -0.538711,0.01297 -3.3287535,0 -6.3458971,-1.379796 -8.5302198,-3.60998 l -0.004,-0.0031 C 1.3514016,18.295853 0,15.215282 0,11.816479 0,8.4149511 1.3514016,5.3330527 3.5343542,3.102828 h 0.004 C 5.7226769,0.87402261 8.7398205,-0.50577378 12.068574,-0.50577378 Z"
       class="fil33"
       id="_368079872-8-0-3-8-8-6" />
    <path
       style="fill:#cccccc;fill-rule:nonzero;stroke-width:0.00461961"
       inkscape:connector-curvature="0"
       d="m 12.578115,-0.505202 c -0.1816,0 -0.36151,0.004084 -0.538711,0.012967 3.113874,0.14004313 5.925508,1.48815726 7.99154,3.5962883 h 0.004 c 2.182913,2.2301838 3.535664,5.3121333 3.535664,8.7136517 0,3.398813 -1.352751,6.479333 -3.535664,8.709557 l -0.004,0.0031 c -2.066032,2.109551 -4.877666,3.457808 -7.99154,3.597708 0.177371,0.0082 0.357281,0.01297 0.538711,0.01297 3.328754,0 6.344588,-1.379837 8.52886,-3.610062 l 0.004,-0.0031 c 2.184273,-2.230225 3.535715,-5.310745 3.535715,-8.709547 0,-3.4015289 -1.351442,-6.4834783 -3.535715,-8.7136621 h -0.004 c -2.184272,-2.22879519 -5.200106,-3.60864263 -8.52886,-3.60864263 z"
       class="fil36"
       id="_368079536-8-6-2-8-2-1" />
    <path
       sodipodi:type="star"
       style="opacity:1;fill:#dddddd;fill-opacity:1;stroke-width:0.26458454"
       id="path895"
       sodipodi:sides="3"
       sodipodi:cx="12.323866"
       sodipodi:cy="11.53856"
       sodipodi:r1="7.3535557"
       sodipodi:r2="3.6767778"
       sodipodi:arg1="0.52359878"
       sodipodi:arg2="1.5707963"
       inkscape:flatsided="false"
       inkscape:rounded="0"
       inkscape:randomized="0"
       d="m 18.692232,15.215338 -6.368366,0 -6.3683662,0 3.184183,-5.5151669 3.1841832,-5.5151669 3.184183,5.5151667 z"
       inkscape:transform-center-y="-1.8383331"
       inkscape:transform-center-x="-1.5150655e-006" />
  </g>
</svg>
