<?xml version="1.0" encoding="UTF-8" standalone="no"?>
<!-- Created with Inkscape (http://www.inkscape.org/) -->

<svg
   xmlns:dc="http://purl.org/dc/elements/1.1/"
   xmlns:cc="http://creativecommons.org/ns#"
   xmlns:rdf="http://www.w3.org/1999/02/22-rdf-syntax-ns#"
   xmlns:svg="http://www.w3.org/2000/svg"
   xmlns="http://www.w3.org/2000/svg"
   xmlns:sodipodi="http://sodipodi.sourceforge.net/DTD/sodipodi-0.dtd"
   xmlns:inkscape="http://www.inkscape.org/namespaces/inkscape"
   width="20.790001mm"
   height="30.110001mm"
   viewBox="0 0 20.790001 30.110001"
   version="1.1"
   id="svg840"
   inkscape:version="0.92.2 (5c3e80d, 2017-08-06)"
   sodipodi:docname="shower.svg">
  <defs
     id="defs834">
    <linearGradient
       id="linearGradient3515"
       spreadMethod="pad"
       gradientTransform="matrix(-8.0279883,0,0,-12.208264,194.39606,744.71655)"
       gradientUnits="userSpaceOnUse"
       y2="0"
       x2="1"
       y1="0"
       x1="0">
      <stop
         id="stop3517"
         offset="0"
         style="stop-opacity:1;stop-color:#fefefe" />
      <stop
         id="stop3519"
         offset="0.58"
         style="stop-opacity:1;stop-color:#e0e0e0" />
      <stop
         id="stop3521"
         offset="1"
         style="stop-opacity:1;stop-color:#d4d4d4" />
    </linearGradient>
    <linearGradient
       id="linearGradient3541"
       spreadMethod="pad"
       gradientTransform="matrix(-29.213225,0,0,-11.756701,204.71852,732.86071)"
       gradientUnits="userSpaceOnUse"
       y2="0"
       x2="1"
       y1="0"
       x1="0">
      <stop
         id="stop3543"
         offset="0"
         style="stop-opacity:1;stop-color:#9d9e9e" />
      <stop
         id="stop3545"
         offset="1"
         style="stop-opacity:1;stop-color:#fefefe" />
    </linearGradient>
    <linearGradient
       id="linearGradient3579"
       spreadMethod="pad"
       gradientTransform="matrix(-29.143041,0,0,-11.399701,204.64801,732.58461)"
       gradientUnits="userSpaceOnUse"
       y2="0"
       x2="1"
       y1="0"
       x1="0">
      <stop
         id="stop3581"
         offset="0"
         style="stop-opacity:1;stop-color:#c5c6c6" />
      <stop
         id="stop3583"
         offset="1"
         style="stop-opacity:1;stop-color:#9d9e9e" />
    </linearGradient>
    <linearGradient
       id="linearGradient3515-8-9"
       spreadMethod="pad"
       gradientTransform="matrix(-5.5749478,0,0,8.4778945,13.622563,-0.00220939)"
       gradientUnits="userSpaceOnUse"
       y2="0"
       x2="1"
       y1="0"
       x1="0">
      <stop
         id="stop3517-1-9"
         offset="0"
         style="stop-opacity:1;stop-color:#fefefe" />
      <stop
         id="stop3519-2-3"
         offset="0.58"
         style="stop-opacity:1;stop-color:#e0e0e0" />
      <stop
         id="stop3521-6-6"
         offset="1"
         style="stop-opacity:1;stop-color:#d4d4d4" />
    </linearGradient>
    <linearGradient
       id="linearGradient3541-3-1"
       spreadMethod="pad"
       gradientTransform="matrix(-20.286802,0,0,8.1643112,20.790883,8.2309506)"
       gradientUnits="userSpaceOnUse"
       y2="0"
       x2="1"
       y1="0"
       x1="0">
      <stop
         id="stop3543-4-1"
         offset="0"
         style="stop-opacity:1;stop-color:#9d9e9e" />
      <stop
         id="stop3545-7-3"
         offset="1"
         style="stop-opacity:1;stop-color:#fefefe" />
    </linearGradient>
    <linearGradient
       id="linearGradient3579-0-5"
       spreadMethod="pad"
       gradientTransform="matrix(-20.311383,0,0,8.3657199,20.741917,8.0743606)"
       gradientUnits="userSpaceOnUse"
       y2="0"
       x2="1"
       y1="0"
       x1="0">
      <stop
         id="stop3581-6-5"
         offset="0"
         style="stop-opacity:1;stop-color:#c5c6c6" />
      <stop
         id="stop3583-8-3"
         offset="1"
         style="stop-opacity:1;stop-color:#9d9e9e" />
    </linearGradient>
  </defs>
  <sodipodi:namedview
     id="base"
     pagecolor="#ffffff"
     bordercolor="#666666"
     borderopacity="1.0"
     inkscape:pageopacity="0.0"
     inkscape:pageshadow="2"
     inkscape:zoom="5.6"
     inkscape:cx="26.527387"
     inkscape:cy="69.268936"
     inkscape:document-units="mm"
     inkscape:current-layer="svg840"
     showgrid="false"
     inkscape:window-width="1920"
     inkscape:window-height="1027"
     inkscape:window-x="1912"
     inkscape:window-y="-8"
     inkscape:window-maximized="1" />
  <metadata
     id="metadata837">
    <rdf:RDF>
      <cc:Work
         rdf:about="">
        <dc:format>image/svg+xml</dc:format>
        <dc:type
           rdf:resource="http://purl.org/dc/dcmitype/StillImage" />
        <dc:title />
      </cc:Work>
    </rdf:RDF>
  </metadata>
  <g
     inkscape:label="Layer 1"
     inkscape:groupmode="layer"
     id="layer1">
    <path
       inkscape:connector-curvature="0"
       d="M 13.622563,6.1035149e-7 H 8.0483326 V 8.4757306 h 5.5742304 z"
       style="fill:url(#linearGradient3515-8-9);fill-rule:evenodd;stroke:none;stroke-width:1.78004003"
       id="path3523-6" />
    <path
       id="path3525-8"
       style="fill:#b0b0b0;fill-opacity:1;fill-rule:evenodd;stroke:none;stroke-width:0.33072916"
       d="m 8.3103326,6.1035149e-7 h -0.262 V 8.3060306 h 0.262 z"
       inkscape:connector-curvature="0" />
    <path
       id="path3527-1"
       style="fill:#cccccc;fill-opacity:1;fill-rule:evenodd;stroke:none;stroke-width:0.33072916"
       d="m 13.622563,6.1035149e-7 h -0.262 V 8.7216606 h 0.262 z"
       inkscape:connector-curvature="0" />
    <path
       id="path3529-1"
       style="fill:#b2b2b2;fill-opacity:1;fill-rule:evenodd;stroke:none;stroke-width:0.33072916"
       d="m 6.5017226,8.5687906 c -1.03084,0.31918 -1.96973,0.95794 -2.98148,1.9697104 -1.01289,1.01288 -2.10204,2.40177 -2.70151998,3.10967 -0.60065,0.70976 -0.71538,0.74042 -0.77258,1.05849 -0.0571,0.31882 -0.0571,0.92692 -0.0224,1.24986 0.0374,0.32554 0.11107,0.3689 1.96821998,0.39019 2.60957,0.0294 5.13133,0.0452 7.64636,0.0474 -2.34759,-0.004 -4.70526,-0.021 -7.13991,-0.0474 -1.85722998,-0.0215 -1.93121998,-0.0647 -1.96821998,-0.39019 -0.0374,-0.32294 -0.0374,-0.93104 0.0224,-1.24986 0.0565,-0.31807 0.17071,-0.34873 0.77254998,-1.05849 0.59952,-0.7079 1.68864,-2.09679 2.70153,-3.10967 1.01177,-1.0117704 1.95066,-1.6505304 2.98147,-1.9697104 0.68323,-0.21081 2.00673,-0.32293 3.3679604,-0.33563 -1.5309304,-0.0147 -3.1052004,0.0987 -3.8743804,0.33563"
       inkscape:connector-curvature="0" />
    <path
       inkscape:connector-curvature="0"
       d="m 7.0081426,8.5687906 c -1.03081,0.31918 -1.9697,0.95794 -2.98145,1.9697104 -1.01291,1.01288 -2.10203,2.40177 -2.70155,3.10967 -0.60172998,0.70976 -0.71609998,0.74042 -0.77254998,1.05849 -0.0571,0.31882 -0.0571,0.92692 -0.0224,1.24986 0.0374,0.32554 0.11108,0.3689 1.96821998,0.39019 5.56749,0.0636 10.7294904,0.0636 16.2970004,0 1.85607,-0.0215 1.93158,-0.0647 1.96746,-0.39019 0.0374,-0.32294 0.0374,-0.93104 -0.0189,-1.24986 -0.0573,-0.31807 -0.17154,-0.34873 -0.77219,-1.05849 -0.601,-0.7079 -1.69013,-2.09679 -2.7019,-3.10967 -1.01177,-1.0117704 -1.95026,-1.6505304 -2.9811,-1.9697104 -1.45916,-0.44887 -5.8209104,-0.45001 -7.2808204,0"
       style="fill:url(#linearGradient3541-3-1);fill-rule:evenodd;stroke:none;stroke-width:1.78004003"
       id="path3547-6" />
    <path
       id="path3549-9"
       style="fill:#999999;fill-opacity:1;fill-rule:evenodd;stroke:none;stroke-width:0.33072916"
       d="m 14.288973,8.5687906 c 1.03082,0.31918 1.96935,0.95794 2.9811,1.9697104 1.01177,1.01288 2.1009,2.40177 2.7019,3.10967 0.60062,0.70976 0.715,0.74042 0.7722,1.05849 0.0571,0.31882 0.0571,0.92692 0.0189,1.24986 -0.0374,0.32554 -0.11129,0.3689 -1.96748,0.39019 -2.60958,0.0294 -5.13097,0.0452 -7.64635,0.0474 2.34795,-0.004 4.70525,-0.021 7.13991,-0.0474 1.85721,-0.0215 1.93158,-0.0647 1.9686,-0.39019 0.0374,-0.32294 0.0374,-0.93104 -0.0224,-1.24986 -0.0571,-0.31807 -0.17155,-0.34873 -0.77219,-1.05849 -0.59987,-0.7079 -1.68902,-2.09679 -2.7019,-3.10967 -1.01175,-1.0117704 -1.95026,-1.6505304 -2.9811,-1.9697104 -0.68472,-0.21081 -2.00671,-0.32293 -3.36831,-0.33563 1.53093,-0.0147 3.10557,0.0987 3.87476,0.33563"
       inkscape:connector-curvature="0" />
    <path
       id="path3551-1"
       style="fill:#e8bfbf;fill-opacity:1;fill-rule:evenodd;stroke:none;stroke-width:0.33072916"
       d="m 18.163363,17.676171 h -0.95683 v 12.43383 h 0.95683 z"
       inkscape:connector-curvature="0" />
    <path
       id="path3553-6"
       style="fill:#e8bfbf;fill-opacity:1;fill-rule:evenodd;stroke:none;stroke-width:0.33072916"
       d="m 16.334543,17.676171 h -0.95569 v 12.43383 h 0.95569 z"
       inkscape:connector-curvature="0" />
    <path
       id="path3555-3"
       style="fill:#e8bfbf;fill-opacity:1;fill-rule:evenodd;stroke:none;stroke-width:0.33072916"
       d="m 14.563303,17.676171 h -0.95682 v 12.43383 h 0.95682 z"
       inkscape:connector-curvature="0" />
    <path
       id="path3557-8"
       style="fill:#e8bfbf;fill-opacity:1;fill-rule:evenodd;stroke:none;stroke-width:0.33072916"
       d="m 12.762183,17.676171 h -0.95571 v 12.43383 h 0.95571 z"
       inkscape:connector-curvature="0" />
    <path
       id="path3559-9"
       style="fill:#e8bfbf;fill-opacity:1;fill-rule:evenodd;stroke:none;stroke-width:0.33072916"
       d="M 10.933373,17.676171 H 9.9769226 v 12.43383 h 0.9564504 z"
       inkscape:connector-curvature="0" />
    <path
       id="path3561-7"
       style="fill:#e8bfbf;fill-opacity:1;fill-rule:evenodd;stroke:none;stroke-width:0.33072916"
       d="m 9.1056826,17.676171 h -0.95644 v 12.43383 h 0.95644 z"
       inkscape:connector-curvature="0" />
    <path
       id="path3563-4"
       style="fill:#e8bfbf;fill-opacity:1;fill-rule:evenodd;stroke:none;stroke-width:0.33072916"
       d="m 7.3333326,17.676171 h -0.95571 v 12.43383 h 0.95571 z"
       inkscape:connector-curvature="0" />
    <path
       id="path3565-2"
       style="fill:#e8bfbf;fill-opacity:1;fill-rule:evenodd;stroke:none;stroke-width:0.33072916"
       d="m 5.5333026,17.676171 h -0.95682 v 12.43383 h 0.95682 z"
       inkscape:connector-curvature="0" />
    <path
       id="path3567-7"
       style="fill:#e8bfbf;fill-opacity:1;fill-rule:evenodd;stroke:none;stroke-width:0.33072916"
       d="m 3.7310326,17.676171 h -0.95569 v 12.43383 h 0.95569 z"
       inkscape:connector-curvature="0" />
    <path
       inkscape:connector-curvature="0"
       d="m 0.51772242,14.559411 c -0.0189685,0.0446 -0.030209,0.094 -0.0389406,0.15087 -0.0577083,0.32585 -0.0577083,0.95069 -0.0189685,1.28089 0.0375355,0.33377 0.11148243,0.37837 1.97010158,0.39853 5.5738,0.0659 10.7428701,0.0659 16.3166701,0 1.859792,-0.02 1.934081,-0.0648 1.971215,-0.39853 0.03754,-0.3302 0.03754,-0.95504 -0.02258,-1.28089 -0.01053,-0.0567 -0.02248,-0.10627 -0.03945,-0.15087 z"
       style="fill:url(#linearGradient3579-0-5);fill-rule:evenodd;stroke:none;stroke-width:1.78004003"
       id="path3585-7" />
  </g>
</svg>
